# xmcd CD database file
#
# Track frame offsets:
#	182
#	18042
#	35090
#	54112
#	70335
#	86230
#	105117
#	122142
#	142105
#	160020
#	176895
#	194487
#	210505
#	224427
#	240935
#	256430
#	268680
#	285780
#	304380
#
# Disc length: 4286 seconds
#
# Revision: 0
# Processed by: cddbd v1.5.2PL0 Copyright (c) Steve Scherf et al.
# Submitted via: CDex 1.91
#
DISCID=0f10bc13
DTITLE=The High Sierra Jazz Band - Choice Cuts
DYEAR=1900
DGENRE=Jazz
TTITLE0=Shake It and Break It
TTITLE1=Any Old Time
TTITLE2=Keepin' Out of Mischief Now
TTITLE3=Shimmy Sha-Wabble
TTITLE4=My Walkin' Stick
TTITLE5=I'm Comin', Virginia
TTITLE6=Marie
TTITLE7=I Had Someone Else Before I Had You
TTITLE8=Emperor Norton's Hunch
TTITLE9=The Chant
TTITLE10=Someday, Sweetheart
TTITLE11=Big Bear Sstomp
TTITLE12=Tishomingo Blues
TTITLE13=Rose of Washington Square
TTITLE14=If Someone Would Only Love Me
TTITLE15=Waitin' for the Robert E. Lee
TTITLE16=My Mother's Eyes
TTITLE17=When I Leave the World Behind
TTITLE18=Apex Blues
EXTD=
EXTT0=
EXTT1=
EXTT2=
EXTT3=
EXTT4=
EXTT5=
EXTT6=
EXTT7=
EXTT8=
EXTT9=
EXTT10=
EXTT11=
EXTT12=
EXTT13=
EXTT14=
EXTT15=
EXTT16=
EXTT17=
EXTT18=
PLAYORDER=
